<svg width="24" height="25" viewBox="0 0 24 25" fill="none" xmlns="http://www.w3.org/2000/svg">
<mask id="mask0_89715_8739" style="mask-type:alpha" maskUnits="userSpaceOnUse" x="0" y="0" width="24" height="25">
<rect y="0.396729" width="24" height="24" fill="#D9D9D9"/>
</mask>
<g mask="url(#mask0_89715_8739)">
<path d="M9.14961 16.5059L19.0086 4.77635C19.2413 4.49955 19.5176 4.36115 19.8375 4.36115C20.1574 4.36115 20.4337 4.49955 20.6664 4.77635C20.899 5.05315 21.0153 5.38186 21.0153 5.76246C21.0153 6.14307 20.899 6.47177 20.6664 6.74857L9.96393 19.4815C9.73127 19.7583 9.45983 19.8967 9.14961 19.8967C8.8394 19.8967 8.56796 19.7583 8.3353 19.4815L3.33308 13.5303C3.10042 13.2534 2.98893 12.9247 2.99863 12.5441C3.00832 12.1635 3.1295 11.8348 3.36216 11.558C3.59482 11.2812 3.87111 11.1428 4.19102 11.1428C4.51093 11.1428 4.78721 11.2812 5.01987 11.558L9.14961 16.5059Z" fill="white"/>
</g>
</svg>
