<svg width="208" height="32" viewBox="0 0 208 32" fill="none" xmlns="http://www.w3.org/2000/svg">
<rect x="20" y="8" width="16" height="16" rx="3" stroke="#2A3647" stroke-width="2"/>
<path d="M63.7727 12.7727C63.7045 12.197 63.428 11.75 62.9432 11.4318C62.4583 11.1136 61.8636 10.9545 61.1591 10.9545C60.6439 10.9545 60.1932 11.0379 59.8068 11.2045C59.4242 11.3712 59.125 11.6004 58.9091 11.892C58.697 12.1837 58.5909 12.5152 58.5909 12.8864C58.5909 13.197 58.6648 13.464 58.8125 13.6875C58.964 13.9072 59.1572 14.0909 59.392 14.2386C59.6269 14.3826 59.8731 14.5019 60.1307 14.5966C60.3883 14.6875 60.625 14.7614 60.8409 14.8182L62.0227 15.1364C62.3258 15.2159 62.6629 15.3258 63.0341 15.4659C63.4091 15.6061 63.767 15.7973 64.108 16.0398C64.4527 16.2784 64.7367 16.5852 64.9602 16.9602C65.1837 17.3352 65.2955 17.7955 65.2955 18.3409C65.2955 18.9697 65.1307 19.5379 64.8011 20.0455C64.4754 20.553 63.9981 20.9564 63.3693 21.2557C62.7443 21.5549 61.9848 21.7045 61.0909 21.7045C60.2576 21.7045 59.536 21.5701 58.9261 21.3011C58.3201 21.0322 57.8428 20.6572 57.4943 20.1761C57.1496 19.6951 56.9545 19.1364 56.9091 18.5H58.3636C58.4015 18.9394 58.5492 19.303 58.8068 19.5909C59.0682 19.875 59.3977 20.0871 59.7955 20.2273C60.197 20.3636 60.6288 20.4318 61.0909 20.4318C61.6288 20.4318 62.1117 20.3447 62.5398 20.1705C62.9678 19.9924 63.3068 19.7462 63.5568 19.4318C63.8068 19.1136 63.9318 18.7424 63.9318 18.3182C63.9318 17.9318 63.8239 17.6174 63.608 17.375C63.392 17.1326 63.108 16.9356 62.7557 16.7841C62.4034 16.6326 62.0227 16.5 61.6136 16.3864L60.1818 15.9773C59.2727 15.7159 58.553 15.3428 58.0227 14.858C57.4924 14.3731 57.2273 13.7386 57.2273 12.9545C57.2273 12.303 57.4034 11.7348 57.7557 11.25C58.1117 10.7614 58.589 10.3826 59.1875 10.1136C59.7898 9.84091 60.4621 9.70455 61.2045 9.70455C61.9545 9.70455 62.6212 9.83901 63.2045 10.108C63.7879 10.3731 64.25 10.7367 64.5909 11.1989C64.9356 11.661 65.1174 12.1856 65.1364 12.7727H63.7727ZM71.2259 12.7727V13.9091H66.7031V12.7727H71.2259ZM68.0213 10.6818H69.3622V19C69.3622 19.3788 69.4171 19.6629 69.527 19.8523C69.6406 20.0379 69.7846 20.1629 69.9588 20.2273C70.1368 20.2879 70.3243 20.3182 70.5213 20.3182C70.669 20.3182 70.7902 20.3106 70.8849 20.2955C70.9796 20.2765 71.0554 20.2614 71.1122 20.25L71.3849 21.4545C71.294 21.4886 71.1671 21.5227 71.0043 21.5568C70.8414 21.5947 70.6349 21.6136 70.3849 21.6136C70.0062 21.6136 69.6349 21.5322 69.2713 21.3693C68.9115 21.2064 68.6122 20.9583 68.3736 20.625C68.1387 20.2917 68.0213 19.8712 68.0213 19.3636V10.6818ZM75.8111 21.7045C75.258 21.7045 74.7562 21.6004 74.3054 21.392C73.8546 21.1799 73.4967 20.875 73.2315 20.4773C72.9664 20.0758 72.8338 19.5909 72.8338 19.0227C72.8338 18.5227 72.9323 18.1174 73.1293 17.8068C73.3262 17.4924 73.5895 17.2462 73.919 17.0682C74.2486 16.8902 74.6122 16.7576 75.0099 16.6705C75.4115 16.5795 75.8149 16.5076 76.2202 16.4545C76.7505 16.3864 77.1804 16.3352 77.5099 16.3011C77.8433 16.2633 78.0857 16.2008 78.2372 16.1136C78.3925 16.0265 78.4702 15.875 78.4702 15.6591V15.6136C78.4702 15.053 78.3168 14.6174 78.0099 14.3068C77.7069 13.9962 77.2467 13.8409 76.6293 13.8409C75.9891 13.8409 75.4872 13.9811 75.1236 14.2614C74.7599 14.5417 74.5043 14.8409 74.3565 15.1591L73.0838 14.7045C73.3111 14.1742 73.6141 13.7614 73.9929 13.4659C74.3755 13.1667 74.7921 12.9583 75.2429 12.8409C75.6974 12.7197 76.1444 12.6591 76.5838 12.6591C76.8641 12.6591 77.1861 12.6932 77.5497 12.7614C77.9171 12.8258 78.2713 12.9602 78.6122 13.1648C78.9569 13.3693 79.2429 13.678 79.4702 14.0909C79.6974 14.5038 79.8111 15.0568 79.8111 15.75V21.5H78.4702V20.3182H78.402C78.3111 20.5076 78.1596 20.7102 77.9474 20.9261C77.7353 21.142 77.4531 21.3258 77.1009 21.4773C76.7486 21.6288 76.3187 21.7045 75.8111 21.7045ZM76.0156 20.5C76.5459 20.5 76.9929 20.3958 77.3565 20.1875C77.724 19.9792 78.0005 19.7102 78.1861 19.3807C78.3755 19.0511 78.4702 18.7045 78.4702 18.3409V17.1136C78.4134 17.1818 78.2884 17.2443 78.0952 17.3011C77.9058 17.3542 77.6861 17.4015 77.4361 17.4432C77.1899 17.4811 76.9493 17.5152 76.7145 17.5455C76.4834 17.572 76.2959 17.5947 76.152 17.6136C75.8035 17.6591 75.4777 17.733 75.1747 17.8352C74.8755 17.9337 74.633 18.0833 74.4474 18.2841C74.2656 18.4811 74.1747 18.75 74.1747 19.0909C74.1747 19.5568 74.3471 19.9091 74.6918 20.1477C75.0402 20.3826 75.4815 20.5 76.0156 20.5ZM82.2585 21.5V12.7727H83.554V14.0909H83.6449C83.804 13.6591 84.0919 13.3087 84.5085 13.0398C84.9252 12.7708 85.3949 12.6364 85.9176 12.6364C86.0161 12.6364 86.1392 12.6383 86.2869 12.642C86.4347 12.6458 86.5464 12.6515 86.6222 12.6591V14.0227C86.5767 14.0114 86.4725 13.9943 86.3097 13.9716C86.1506 13.9451 85.982 13.9318 85.804 13.9318C85.3797 13.9318 85.0009 14.0208 84.6676 14.1989C84.3381 14.3731 84.0767 14.6155 83.8835 14.9261C83.6941 15.233 83.5994 15.5833 83.5994 15.9773V21.5H82.2585ZM92.554 12.7727V13.9091H88.0312V12.7727H92.554ZM89.3494 10.6818H90.6903V19C90.6903 19.3788 90.7453 19.6629 90.8551 19.8523C90.9688 20.0379 91.1127 20.1629 91.2869 20.2273C91.465 20.2879 91.6525 20.3182 91.8494 20.3182C91.9972 20.3182 92.1184 20.3106 92.2131 20.2955C92.3078 20.2765 92.3835 20.2614 92.4403 20.25L92.7131 21.4545C92.6222 21.4886 92.4953 21.5227 92.3324 21.5568C92.1695 21.5947 91.9631 21.6136 91.7131 21.6136C91.3343 21.6136 90.9631 21.5322 90.5994 21.3693C90.2396 21.2064 89.9403 20.9583 89.7017 20.625C89.4669 20.2917 89.3494 19.8712 89.3494 19.3636V10.6818ZM99.2528 21.5V9.86364H103.185C104.098 9.86364 104.844 10.0284 105.423 10.358C106.007 10.6837 106.438 11.125 106.719 11.6818C106.999 12.2386 107.139 12.8598 107.139 13.5455C107.139 14.2311 106.999 14.8542 106.719 15.4148C106.442 15.9754 106.014 16.4223 105.435 16.7557C104.855 17.0852 104.113 17.25 103.207 17.25H100.389V16H103.162C103.787 16 104.289 15.892 104.668 15.6761C105.046 15.4602 105.321 15.1686 105.491 14.8011C105.666 14.4299 105.753 14.0114 105.753 13.5455C105.753 13.0795 105.666 12.6629 105.491 12.2955C105.321 11.928 105.045 11.6402 104.662 11.4318C104.279 11.2197 103.772 11.1136 103.139 11.1136H100.662V21.5H99.2528ZM111.795 21.7045C111.242 21.7045 110.741 21.6004 110.29 21.392C109.839 21.1799 109.481 20.875 109.216 20.4773C108.951 20.0758 108.818 19.5909 108.818 19.0227C108.818 18.5227 108.917 18.1174 109.114 17.8068C109.311 17.4924 109.574 17.2462 109.903 17.0682C110.233 16.8902 110.597 16.7576 110.994 16.6705C111.396 16.5795 111.799 16.5076 112.205 16.4545C112.735 16.3864 113.165 16.3352 113.494 16.3011C113.828 16.2633 114.07 16.2008 114.222 16.1136C114.377 16.0265 114.455 15.875 114.455 15.6591V15.6136C114.455 15.053 114.301 14.6174 113.994 14.3068C113.691 13.9962 113.231 13.8409 112.614 13.8409C111.973 13.8409 111.472 13.9811 111.108 14.2614C110.744 14.5417 110.489 14.8409 110.341 15.1591L109.068 14.7045C109.295 14.1742 109.598 13.7614 109.977 13.4659C110.36 13.1667 110.777 12.9583 111.227 12.8409C111.682 12.7197 112.129 12.6591 112.568 12.6591C112.848 12.6591 113.17 12.6932 113.534 12.7614C113.902 12.8258 114.256 12.9602 114.597 13.1648C114.941 13.3693 115.227 13.678 115.455 14.0909C115.682 14.5038 115.795 15.0568 115.795 15.75V21.5H114.455V20.3182H114.386C114.295 20.5076 114.144 20.7102 113.932 20.9261C113.72 21.142 113.438 21.3258 113.085 21.4773C112.733 21.6288 112.303 21.7045 111.795 21.7045ZM112 20.5C112.53 20.5 112.977 20.3958 113.341 20.1875C113.708 19.9792 113.985 19.7102 114.17 19.3807C114.36 19.0511 114.455 18.7045 114.455 18.3409V17.1136C114.398 17.1818 114.273 17.2443 114.08 17.3011C113.89 17.3542 113.67 17.4015 113.42 17.4432C113.174 17.4811 112.934 17.5152 112.699 17.5455C112.468 17.572 112.28 17.5947 112.136 17.6136C111.788 17.6591 111.462 17.733 111.159 17.8352C110.86 17.9337 110.617 18.0833 110.432 18.2841C110.25 18.4811 110.159 18.75 110.159 19.0909C110.159 19.5568 110.331 19.9091 110.676 20.1477C111.025 20.3826 111.466 20.5 112 20.5ZM121.766 24.9545C121.118 24.9545 120.561 24.8712 120.095 24.7045C119.629 24.5417 119.241 24.3258 118.93 24.0568C118.624 23.7917 118.379 23.5076 118.197 23.2045L119.266 22.4545C119.387 22.6136 119.54 22.7955 119.726 23C119.911 23.2083 120.165 23.3883 120.487 23.5398C120.813 23.6951 121.239 23.7727 121.766 23.7727C122.47 23.7727 123.052 23.6023 123.51 23.2614C123.968 22.9205 124.197 22.3864 124.197 21.6591V19.8864H124.084C123.985 20.0455 123.845 20.2424 123.663 20.4773C123.485 20.7083 123.228 20.9148 122.891 21.0966C122.557 21.2746 122.107 21.3636 121.538 21.3636C120.834 21.3636 120.201 21.197 119.641 20.8636C119.084 20.5303 118.643 20.0455 118.317 19.4091C117.995 18.7727 117.834 18 117.834 17.0909C117.834 16.197 117.991 15.4186 118.305 14.7557C118.62 14.089 119.057 13.5739 119.618 13.2102C120.179 12.8428 120.826 12.6591 121.561 12.6591C122.129 12.6591 122.58 12.7538 122.913 12.9432C123.25 13.1288 123.508 13.3409 123.686 13.5795C123.868 13.8144 124.008 14.0076 124.107 14.1591H124.243V12.7727H125.538V21.75C125.538 22.5 125.368 23.1098 125.027 23.5795C124.69 24.053 124.235 24.3996 123.663 24.6193C123.095 24.8428 122.463 24.9545 121.766 24.9545ZM121.72 20.1591C122.258 20.1591 122.713 20.036 123.084 19.7898C123.455 19.5436 123.737 19.1894 123.93 18.7273C124.124 18.2652 124.22 17.7121 124.22 17.0682C124.22 16.4394 124.125 15.8845 123.936 15.4034C123.747 14.9223 123.466 14.5455 123.095 14.2727C122.724 14 122.266 13.8636 121.72 13.8636C121.152 13.8636 120.679 14.0076 120.3 14.2955C119.925 14.5833 119.643 14.9697 119.453 15.4545C119.268 15.9394 119.175 16.4773 119.175 17.0682C119.175 17.6742 119.269 18.2102 119.459 18.6761C119.652 19.1383 119.936 19.5019 120.311 19.767C120.69 20.0284 121.16 20.1591 121.72 20.1591ZM131.652 21.6818C130.811 21.6818 130.086 21.4962 129.476 21.125C128.87 20.75 128.402 20.2273 128.072 19.5568C127.747 18.8826 127.584 18.0985 127.584 17.2045C127.584 16.3106 127.747 15.5227 128.072 14.8409C128.402 14.1553 128.86 13.6212 129.447 13.2386C130.038 12.8523 130.728 12.6591 131.516 12.6591C131.97 12.6591 132.419 12.7348 132.862 12.8864C133.305 13.0379 133.709 13.2841 134.072 13.625C134.436 13.9621 134.726 14.4091 134.942 14.9659C135.158 15.5227 135.266 16.2083 135.266 17.0227V17.5909H128.538V16.4318H133.902C133.902 15.9394 133.804 15.5 133.607 15.1136C133.413 14.7273 133.137 14.4223 132.777 14.1989C132.421 13.9754 132 13.8636 131.516 13.8636C130.982 13.8636 130.519 13.9962 130.129 14.2614C129.743 14.5227 129.446 14.8636 129.237 15.2841C129.029 15.7045 128.925 16.1553 128.925 16.6364V17.4091C128.925 18.0682 129.038 18.6269 129.266 19.0852C129.497 19.5398 129.817 19.8864 130.226 20.125C130.635 20.3598 131.11 20.4773 131.652 20.4773C132.004 20.4773 132.322 20.428 132.607 20.3295C132.894 20.2273 133.143 20.0758 133.351 19.875C133.559 19.6705 133.72 19.4167 133.834 19.1136L135.129 19.4773C134.993 19.9167 134.764 20.303 134.442 20.6364C134.12 20.9659 133.722 21.2235 133.249 21.4091C132.775 21.5909 132.243 21.6818 131.652 21.6818ZM141.987 21.5V9.86364H143.396V20.25H148.805V21.5H141.987ZM153.374 21.7045C152.821 21.7045 152.319 21.6004 151.868 21.392C151.417 21.1799 151.059 20.875 150.794 20.4773C150.529 20.0758 150.396 19.5909 150.396 19.0227C150.396 18.5227 150.495 18.1174 150.692 17.8068C150.889 17.4924 151.152 17.2462 151.482 17.0682C151.811 16.8902 152.175 16.7576 152.572 16.6705C152.974 16.5795 153.377 16.5076 153.783 16.4545C154.313 16.3864 154.743 16.3352 155.072 16.3011C155.406 16.2633 155.648 16.2008 155.8 16.1136C155.955 16.0265 156.033 15.875 156.033 15.6591V15.6136C156.033 15.053 155.879 14.6174 155.572 14.3068C155.269 13.9962 154.809 13.8409 154.192 13.8409C153.552 13.8409 153.05 13.9811 152.686 14.2614C152.322 14.5417 152.067 14.8409 151.919 15.1591L150.646 14.7045C150.874 14.1742 151.177 13.7614 151.555 13.4659C151.938 13.1667 152.355 12.9583 152.805 12.8409C153.26 12.7197 153.707 12.6591 154.146 12.6591C154.427 12.6591 154.749 12.6932 155.112 12.7614C155.48 12.8258 155.834 12.9602 156.175 13.1648C156.519 13.3693 156.805 13.678 157.033 14.0909C157.26 14.5038 157.374 15.0568 157.374 15.75V21.5H156.033V20.3182H155.964C155.874 20.5076 155.722 20.7102 155.51 20.9261C155.298 21.142 155.016 21.3258 154.663 21.4773C154.311 21.6288 153.881 21.7045 153.374 21.7045ZM153.578 20.5C154.108 20.5 154.555 20.3958 154.919 20.1875C155.286 19.9792 155.563 19.7102 155.749 19.3807C155.938 19.0511 156.033 18.7045 156.033 18.3409V17.1136C155.976 17.1818 155.851 17.2443 155.658 17.3011C155.468 17.3542 155.249 17.4015 154.999 17.4432C154.752 17.4811 154.512 17.5152 154.277 17.5455C154.046 17.572 153.858 17.5947 153.714 17.6136C153.366 17.6591 153.04 17.733 152.737 17.8352C152.438 17.9337 152.196 18.0833 152.01 18.2841C151.828 18.4811 151.737 18.75 151.737 19.0909C151.737 19.5568 151.91 19.9091 152.254 20.1477C152.603 20.3826 153.044 20.5 153.578 20.5ZM160.372 24.7727C160.145 24.7727 159.942 24.7538 159.764 24.7159C159.586 24.6818 159.463 24.6477 159.395 24.6136L159.736 23.4318C160.062 23.5152 160.349 23.5455 160.599 23.5227C160.849 23.5 161.071 23.3883 161.264 23.1875C161.461 22.9905 161.641 22.6705 161.804 22.2273L162.054 21.5455L158.827 12.7727H160.281L162.69 19.7273H162.781L165.19 12.7727H166.645L162.94 22.7727C162.774 23.2235 162.567 23.5966 162.321 23.892C162.075 24.1913 161.789 24.4129 161.463 24.5568C161.141 24.7008 160.777 24.7727 160.372 24.7727ZM171.648 21.6818C170.86 21.6818 170.169 21.4943 169.574 21.1193C168.983 20.7443 168.521 20.2197 168.188 19.5455C167.858 18.8712 167.693 18.0833 167.693 17.1818C167.693 16.2727 167.858 15.4792 168.188 14.8011C168.521 14.1231 168.983 13.5966 169.574 13.2216C170.169 12.8466 170.86 12.6591 171.648 12.6591C172.436 12.6591 173.125 12.8466 173.716 13.2216C174.311 13.5966 174.773 14.1231 175.102 14.8011C175.436 15.4792 175.602 16.2727 175.602 17.1818C175.602 18.0833 175.436 18.8712 175.102 19.5455C174.773 20.2197 174.311 20.7443 173.716 21.1193C173.125 21.4943 172.436 21.6818 171.648 21.6818ZM171.648 20.4773C172.246 20.4773 172.739 20.3239 173.125 20.017C173.511 19.7102 173.797 19.3068 173.983 18.8068C174.169 18.3068 174.261 17.7652 174.261 17.1818C174.261 16.5985 174.169 16.0549 173.983 15.5511C173.797 15.0473 173.511 14.6402 173.125 14.3295C172.739 14.0189 172.246 13.8636 171.648 13.8636C171.049 13.8636 170.557 14.0189 170.17 14.3295C169.784 14.6402 169.498 15.0473 169.312 15.5511C169.127 16.0549 169.034 16.5985 169.034 17.1818C169.034 17.7652 169.127 18.3068 169.312 18.8068C169.498 19.3068 169.784 19.7102 170.17 20.017C170.557 20.3239 171.049 20.4773 171.648 20.4773ZM183.149 17.9318V12.7727H184.49V21.5H183.149V20.0227H183.058C182.854 20.4659 182.536 20.8428 182.104 21.1534C181.672 21.4602 181.126 21.6136 180.467 21.6136C179.922 21.6136 179.437 21.4943 179.013 21.2557C178.589 21.0133 178.255 20.6496 178.013 20.1648C177.77 19.6761 177.649 19.0606 177.649 18.3182V12.7727H178.99V18.2273C178.99 18.8636 179.168 19.3712 179.524 19.75C179.884 20.1288 180.342 20.3182 180.899 20.3182C181.232 20.3182 181.571 20.233 181.916 20.0625C182.265 19.892 182.556 19.6307 182.791 19.2784C183.03 18.9261 183.149 18.4773 183.149 17.9318ZM190.741 12.7727V13.9091H186.219V12.7727H190.741ZM187.537 10.6818H188.878V19C188.878 19.3788 188.933 19.6629 189.043 19.8523C189.156 20.0379 189.3 20.1629 189.474 20.2273C189.652 20.2879 189.84 20.3182 190.037 20.3182C190.185 20.3182 190.306 20.3106 190.401 20.2955C190.495 20.2765 190.571 20.2614 190.628 20.25L190.901 21.4545C190.81 21.4886 190.683 21.5227 190.52 21.5568C190.357 21.5947 190.151 21.6136 189.901 21.6136C189.522 21.6136 189.151 21.5322 188.787 21.3693C188.427 21.2064 188.128 20.9583 187.889 20.625C187.654 20.2917 187.537 19.8712 187.537 19.3636V10.6818Z" fill="black"/>
</svg>
