<svg width="344" height="32" viewBox="0 0 344 32" fill="none" xmlns="http://www.w3.org/2000/svg">
<path d="M36 15V21C36 22.6569 34.6569 24 33 24H23C21.3431 24 20 22.6569 20 21V11C20 9.34315 21.3431 8 23 8H31" stroke="#2A3647" stroke-width="2" stroke-linecap="round"/>
<path d="M24 16L28 20L36 8.5" stroke="#2A3647" stroke-width="2" stroke-linecap="round" stroke-linejoin="round"/>
<path d="M58.8182 9.86364V21.5H57.4091V9.86364H58.8182ZM61.4616 21.5V12.7727H62.7571V14.1364H62.8707C63.0526 13.6705 63.3461 13.3087 63.7514 13.0511C64.1567 12.7898 64.6435 12.6591 65.2116 12.6591C65.7874 12.6591 66.2666 12.7898 66.6491 13.0511C67.0355 13.3087 67.3366 13.6705 67.5526 14.1364H67.6435C67.867 13.6856 68.2022 13.3277 68.6491 13.0625C69.0961 12.7936 69.6321 12.6591 70.2571 12.6591C71.0374 12.6591 71.6757 12.9034 72.1719 13.392C72.6681 13.8769 72.9162 14.6326 72.9162 15.6591V21.5H71.5753V15.6591C71.5753 15.0152 71.3991 14.5549 71.0469 14.2784C70.6946 14.0019 70.2798 13.8636 69.8026 13.8636C69.1889 13.8636 68.7135 14.0492 68.3764 14.4205C68.0393 14.7879 67.8707 15.2538 67.8707 15.8182V21.5H66.5071V15.5227C66.5071 15.0265 66.3461 14.6269 66.0241 14.3239C65.7022 14.017 65.2874 13.8636 64.7798 13.8636C64.4313 13.8636 64.1056 13.9564 63.8026 14.142C63.5033 14.3277 63.2609 14.5852 63.0753 14.9148C62.8935 15.2405 62.8026 15.6174 62.8026 16.0455V21.5H61.4616ZM75.3679 24.7727V12.7727H76.6634V14.1591H76.8224C76.9209 14.0076 77.0573 13.8144 77.2315 13.5795C77.4096 13.3409 77.6634 13.1288 77.9929 12.9432C78.3262 12.7538 78.777 12.6591 79.3452 12.6591C80.08 12.6591 80.7277 12.8428 81.2884 13.2102C81.849 13.5777 82.2865 14.0985 82.6009 14.7727C82.9152 15.447 83.0724 16.2424 83.0724 17.1591C83.0724 18.0833 82.9152 18.8845 82.6009 19.5625C82.2865 20.2367 81.8509 20.7595 81.294 21.1307C80.7372 21.4981 80.0952 21.6818 79.3679 21.6818C78.8073 21.6818 78.3584 21.589 78.0213 21.4034C77.6842 21.214 77.4247 21 77.2429 20.7614C77.0611 20.5189 76.9209 20.3182 76.8224 20.1591H76.7088V24.7727H75.3679ZM76.6861 17.1364C76.6861 17.7955 76.7827 18.3769 76.9759 18.8807C77.169 19.3807 77.4512 19.7727 77.8224 20.0568C78.1937 20.3371 78.6482 20.4773 79.1861 20.4773C79.7467 20.4773 80.2145 20.3295 80.5895 20.0341C80.9683 19.7348 81.2524 19.3333 81.4418 18.8295C81.6349 18.322 81.7315 17.7576 81.7315 17.1364C81.7315 16.5227 81.6368 15.9697 81.4474 15.4773C81.2618 14.9811 80.9796 14.589 80.6009 14.3011C80.2259 14.0095 79.7543 13.8636 79.1861 13.8636C78.6406 13.8636 78.1823 14.0019 77.8111 14.2784C77.4399 14.5511 77.1596 14.9337 76.9702 15.4261C76.7808 15.9148 76.6861 16.4848 76.6861 17.1364ZM86.4588 9.86364V21.5H85.1179V9.86364H86.4588ZM92.5739 21.6818C91.733 21.6818 91.0076 21.4962 90.3977 21.125C89.7917 20.75 89.3239 20.2273 88.9943 19.5568C88.6686 18.8826 88.5057 18.0985 88.5057 17.2045C88.5057 16.3106 88.6686 15.5227 88.9943 14.8409C89.3239 14.1553 89.7822 13.6212 90.3693 13.2386C90.9602 12.8523 91.6496 12.6591 92.4375 12.6591C92.892 12.6591 93.3409 12.7348 93.7841 12.8864C94.2273 13.0379 94.6307 13.2841 94.9943 13.625C95.358 13.9621 95.6477 14.4091 95.8636 14.9659C96.0795 15.5227 96.1875 16.2083 96.1875 17.0227V17.5909H89.4602V16.4318H94.8239C94.8239 15.9394 94.7254 15.5 94.5284 15.1136C94.3352 14.7273 94.0587 14.4223 93.6989 14.1989C93.3428 13.9754 92.9223 13.8636 92.4375 13.8636C91.9034 13.8636 91.4413 13.9962 91.0511 14.2614C90.6648 14.5227 90.3674 14.8636 90.1591 15.2841C89.9508 15.7045 89.8466 16.1553 89.8466 16.6364V17.4091C89.8466 18.0682 89.9602 18.6269 90.1875 19.0852C90.4186 19.5398 90.7386 19.8864 91.1477 20.125C91.5568 20.3598 92.0322 20.4773 92.5739 20.4773C92.9261 20.4773 93.2443 20.428 93.5284 20.3295C93.8163 20.2273 94.0644 20.0758 94.2727 19.875C94.4811 19.6705 94.642 19.4167 94.7557 19.1136L96.0511 19.4773C95.9148 19.9167 95.6856 20.303 95.3636 20.6364C95.0417 20.9659 94.6439 21.2235 94.1705 21.4091C93.697 21.5909 93.1648 21.6818 92.5739 21.6818ZM98.2273 21.5V12.7727H99.5227V14.1364H99.6364C99.8182 13.6705 100.112 13.3087 100.517 13.0511C100.922 12.7898 101.409 12.6591 101.977 12.6591C102.553 12.6591 103.032 12.7898 103.415 13.0511C103.801 13.3087 104.102 13.6705 104.318 14.1364H104.409C104.633 13.6856 104.968 13.3277 105.415 13.0625C105.862 12.7936 106.398 12.6591 107.023 12.6591C107.803 12.6591 108.441 12.9034 108.938 13.392C109.434 13.8769 109.682 14.6326 109.682 15.6591V21.5H108.341V15.6591C108.341 15.0152 108.165 14.5549 107.812 14.2784C107.46 14.0019 107.045 13.8636 106.568 13.8636C105.955 13.8636 105.479 14.0492 105.142 14.4205C104.805 14.7879 104.636 15.2538 104.636 15.8182V21.5H103.273V15.5227C103.273 15.0265 103.112 14.6269 102.79 14.3239C102.468 14.017 102.053 13.8636 101.545 13.8636C101.197 13.8636 100.871 13.9564 100.568 14.142C100.269 14.3277 100.027 14.5852 99.8409 14.9148C99.6591 15.2405 99.5682 15.6174 99.5682 16.0455V21.5H98.2273ZM115.793 21.6818C114.952 21.6818 114.226 21.4962 113.616 21.125C113.01 20.75 112.543 20.2273 112.213 19.5568C111.887 18.8826 111.724 18.0985 111.724 17.2045C111.724 16.3106 111.887 15.5227 112.213 14.8409C112.543 14.1553 113.001 13.6212 113.588 13.2386C114.179 12.8523 114.868 12.6591 115.656 12.6591C116.111 12.6591 116.56 12.7348 117.003 12.8864C117.446 13.0379 117.849 13.2841 118.213 13.625C118.577 13.9621 118.866 14.4091 119.082 14.9659C119.298 15.5227 119.406 16.2083 119.406 17.0227V17.5909H112.679V16.4318H118.043C118.043 15.9394 117.944 15.5 117.747 15.1136C117.554 14.7273 117.277 14.4223 116.918 14.1989C116.562 13.9754 116.141 13.8636 115.656 13.8636C115.122 13.8636 114.66 13.9962 114.27 14.2614C113.884 14.5227 113.586 14.8636 113.378 15.2841C113.17 15.7045 113.065 16.1553 113.065 16.6364V17.4091C113.065 18.0682 113.179 18.6269 113.406 19.0852C113.637 19.5398 113.957 19.8864 114.366 20.125C114.776 20.3598 115.251 20.4773 115.793 20.4773C116.145 20.4773 116.463 20.428 116.747 20.3295C117.035 20.2273 117.283 20.0758 117.491 19.875C117.7 19.6705 117.861 19.4167 117.974 19.1136L119.27 19.4773C119.134 19.9167 118.904 20.303 118.582 20.6364C118.26 20.9659 117.863 21.2235 117.389 21.4091C116.916 21.5909 116.384 21.6818 115.793 21.6818ZM122.787 16.25V21.5H121.446V12.7727H122.741V14.1364H122.855C123.06 13.6932 123.37 13.3371 123.787 13.0682C124.204 12.7955 124.741 12.6591 125.401 12.6591C125.991 12.6591 126.509 12.7803 126.952 13.0227C127.395 13.2614 127.74 13.625 127.986 14.1136C128.232 14.5985 128.355 15.2121 128.355 15.9545V21.5H127.014V16.0455C127.014 15.3598 126.836 14.8258 126.48 14.4432C126.124 14.0568 125.635 13.8636 125.014 13.8636C124.586 13.8636 124.204 13.9564 123.866 14.142C123.533 14.3277 123.27 14.5985 123.077 14.9545C122.884 15.3106 122.787 15.7424 122.787 16.25ZM134.601 12.7727V13.9091H130.078V12.7727H134.601ZM131.396 10.6818H132.737V19C132.737 19.3788 132.792 19.6629 132.902 19.8523C133.016 20.0379 133.16 20.1629 133.334 20.2273C133.512 20.2879 133.699 20.3182 133.896 20.3182C134.044 20.3182 134.165 20.3106 134.26 20.2955C134.355 20.2765 134.43 20.2614 134.487 20.25L134.76 21.4545C134.669 21.4886 134.542 21.5227 134.379 21.5568C134.216 21.5947 134.01 21.6136 133.76 21.6136C133.381 21.6136 133.01 21.5322 132.646 21.3693C132.286 21.2064 131.987 20.9583 131.749 20.625C131.514 20.2917 131.396 19.8712 131.396 19.3636V10.6818ZM141.3 21.5V9.86364H145.232C146.141 9.86364 146.887 10.0189 147.47 10.3295C148.054 10.6364 148.485 11.0587 148.766 11.5966C149.046 12.1345 149.186 12.7462 149.186 13.4318C149.186 14.1174 149.046 14.7254 148.766 15.2557C148.485 15.786 148.055 16.2027 147.476 16.5057C146.896 16.8049 146.156 16.9545 145.254 16.9545H142.072V15.6818H145.209C145.83 15.6818 146.33 15.5909 146.709 15.4091C147.091 15.2273 147.368 14.9697 147.538 14.6364C147.713 14.2992 147.8 13.8977 147.8 13.4318C147.8 12.9659 147.713 12.5587 147.538 12.2102C147.364 11.8617 147.086 11.5928 146.703 11.4034C146.321 11.2102 145.815 11.1136 145.186 11.1136H142.709V21.5H141.3ZM146.777 16.2727L149.641 21.5H148.004L145.186 16.2727H146.777ZM154.918 21.6818C154.077 21.6818 153.351 21.4962 152.741 21.125C152.135 20.75 151.668 20.2273 151.338 19.5568C151.012 18.8826 150.849 18.0985 150.849 17.2045C150.849 16.3106 151.012 15.5227 151.338 14.8409C151.668 14.1553 152.126 13.6212 152.713 13.2386C153.304 12.8523 153.993 12.6591 154.781 12.6591C155.236 12.6591 155.685 12.7348 156.128 12.8864C156.571 13.0379 156.974 13.2841 157.338 13.625C157.702 13.9621 157.991 14.4091 158.207 14.9659C158.423 15.5227 158.531 16.2083 158.531 17.0227V17.5909H151.804V16.4318H157.168C157.168 15.9394 157.069 15.5 156.872 15.1136C156.679 14.7273 156.402 14.4223 156.043 14.1989C155.687 13.9754 155.266 13.8636 154.781 13.8636C154.247 13.8636 153.785 13.9962 153.395 14.2614C153.009 14.5227 152.711 14.8636 152.503 15.2841C152.295 15.7045 152.19 16.1553 152.19 16.6364V17.4091C152.19 18.0682 152.304 18.6269 152.531 19.0852C152.762 19.5398 153.082 19.8864 153.491 20.125C153.901 20.3598 154.376 20.4773 154.918 20.4773C155.27 20.4773 155.588 20.428 155.872 20.3295C156.16 20.2273 156.408 20.0758 156.616 19.875C156.825 19.6705 156.986 19.4167 157.099 19.1136L158.395 19.4773C158.259 19.9167 158.029 20.303 157.707 20.6364C157.385 20.9659 156.988 21.2235 156.514 21.4091C156.041 21.5909 155.509 21.6818 154.918 21.6818ZM164.116 21.6818C163.298 21.6818 162.594 21.4886 162.003 21.1023C161.412 20.7159 160.957 20.1837 160.639 19.5057C160.321 18.8277 160.162 18.053 160.162 17.1818C160.162 16.2955 160.325 15.5133 160.651 14.8352C160.98 14.1534 161.438 13.6212 162.026 13.2386C162.616 12.8523 163.306 12.6591 164.094 12.6591C164.707 12.6591 165.26 12.7727 165.753 13C166.245 13.2273 166.649 13.5455 166.963 13.9545C167.277 14.3636 167.473 14.8409 167.548 15.3864H166.207C166.105 14.9886 165.878 14.6364 165.526 14.3295C165.177 14.0189 164.707 13.8636 164.116 13.8636C163.594 13.8636 163.135 14 162.741 14.2727C162.351 14.5417 162.046 14.9223 161.827 15.4148C161.611 15.9034 161.503 16.4773 161.503 17.1364C161.503 17.8106 161.609 18.3977 161.821 18.8977C162.037 19.3977 162.34 19.786 162.73 20.0625C163.124 20.339 163.586 20.4773 164.116 20.4773C164.465 20.4773 164.781 20.4167 165.065 20.2955C165.349 20.1742 165.59 20 165.787 19.7727C165.984 19.5455 166.124 19.2727 166.207 18.9545H167.548C167.473 19.4697 167.285 19.9337 166.986 20.3466C166.69 20.7557 166.298 21.0814 165.81 21.3239C165.325 21.5625 164.76 21.6818 164.116 21.6818ZM169.509 21.5V12.7727H170.849V21.5H169.509ZM170.19 11.3182C169.929 11.3182 169.704 11.2292 169.514 11.0511C169.329 10.8731 169.236 10.6591 169.236 10.4091C169.236 10.1591 169.329 9.94508 169.514 9.76705C169.704 9.58902 169.929 9.5 170.19 9.5C170.452 9.5 170.675 9.58902 170.861 9.76705C171.05 9.94508 171.145 10.1591 171.145 10.4091C171.145 10.6591 171.05 10.8731 170.861 11.0511C170.675 11.2292 170.452 11.3182 170.19 11.3182ZM173.305 24.7727V12.7727H174.601V14.1591H174.76C174.858 14.0076 174.995 13.8144 175.169 13.5795C175.347 13.3409 175.601 13.1288 175.93 12.9432C176.264 12.7538 176.714 12.6591 177.283 12.6591C178.018 12.6591 178.665 12.8428 179.226 13.2102C179.786 13.5777 180.224 14.0985 180.538 14.7727C180.853 15.447 181.01 16.2424 181.01 17.1591C181.01 18.0833 180.853 18.8845 180.538 19.5625C180.224 20.2367 179.788 20.7595 179.232 21.1307C178.675 21.4981 178.033 21.6818 177.305 21.6818C176.745 21.6818 176.296 21.589 175.959 21.4034C175.622 21.214 175.362 21 175.18 20.7614C174.999 20.5189 174.858 20.3182 174.76 20.1591H174.646V24.7727H173.305ZM174.624 17.1364C174.624 17.7955 174.72 18.3769 174.913 18.8807C175.107 19.3807 175.389 19.7727 175.76 20.0568C176.131 20.3371 176.586 20.4773 177.124 20.4773C177.684 20.4773 178.152 20.3295 178.527 20.0341C178.906 19.7348 179.19 19.3333 179.379 18.8295C179.572 18.322 179.669 17.7576 179.669 17.1364C179.669 16.5227 179.574 15.9697 179.385 15.4773C179.199 14.9811 178.917 14.589 178.538 14.3011C178.163 14.0095 177.692 13.8636 177.124 13.8636C176.578 13.8636 176.12 14.0019 175.749 14.2784C175.377 14.5511 175.097 14.9337 174.908 15.4261C174.718 15.9148 174.624 16.4848 174.624 17.1364ZM186.714 21.6818C185.874 21.6818 185.148 21.4962 184.538 21.125C183.932 20.75 183.464 20.2273 183.135 19.5568C182.809 18.8826 182.646 18.0985 182.646 17.2045C182.646 16.3106 182.809 15.5227 183.135 14.8409C183.464 14.1553 183.923 13.6212 184.51 13.2386C185.101 12.8523 185.79 12.6591 186.578 12.6591C187.033 12.6591 187.482 12.7348 187.925 12.8864C188.368 13.0379 188.771 13.2841 189.135 13.625C189.499 13.9621 189.788 14.4091 190.004 14.9659C190.22 15.5227 190.328 16.2083 190.328 17.0227V17.5909H183.601V16.4318H188.964C188.964 15.9394 188.866 15.5 188.669 15.1136C188.476 14.7273 188.199 14.4223 187.839 14.1989C187.483 13.9754 187.063 13.8636 186.578 13.8636C186.044 13.8636 185.582 13.9962 185.192 14.2614C184.805 14.5227 184.508 14.8636 184.3 15.2841C184.091 15.7045 183.987 16.1553 183.987 16.6364V17.4091C183.987 18.0682 184.101 18.6269 184.328 19.0852C184.559 19.5398 184.879 19.8864 185.288 20.125C185.697 20.3598 186.173 20.4773 186.714 20.4773C187.067 20.4773 187.385 20.428 187.669 20.3295C187.957 20.2273 188.205 20.0758 188.413 19.875C188.622 19.6705 188.783 19.4167 188.896 19.1136L190.192 19.4773C190.055 19.9167 189.826 20.303 189.504 20.6364C189.182 20.9659 188.785 21.2235 188.311 21.4091C187.838 21.5909 187.305 21.6818 186.714 21.6818ZM197.05 21.5V9.86364H200.982C201.891 9.86364 202.637 10.0189 203.22 10.3295C203.804 10.6364 204.235 11.0587 204.516 11.5966C204.796 12.1345 204.936 12.7462 204.936 13.4318C204.936 14.1174 204.796 14.7254 204.516 15.2557C204.235 15.786 203.805 16.2027 203.226 16.5057C202.646 16.8049 201.906 16.9545 201.004 16.9545H197.822V15.6818H200.959C201.58 15.6818 202.08 15.5909 202.459 15.4091C202.841 15.2273 203.118 14.9697 203.288 14.6364C203.463 14.2992 203.55 13.8977 203.55 13.4318C203.55 12.9659 203.463 12.5587 203.288 12.2102C203.114 11.8617 202.836 11.5928 202.453 11.4034C202.071 11.2102 201.565 11.1136 200.936 11.1136H198.459V21.5H197.05ZM202.527 16.2727L205.391 21.5H203.754L200.936 16.2727H202.527ZM210.668 21.6818C209.827 21.6818 209.101 21.4962 208.491 21.125C207.885 20.75 207.418 20.2273 207.088 19.5568C206.762 18.8826 206.599 18.0985 206.599 17.2045C206.599 16.3106 206.762 15.5227 207.088 14.8409C207.418 14.1553 207.876 13.6212 208.463 13.2386C209.054 12.8523 209.743 12.6591 210.531 12.6591C210.986 12.6591 211.435 12.7348 211.878 12.8864C212.321 13.0379 212.724 13.2841 213.088 13.625C213.452 13.9621 213.741 14.4091 213.957 14.9659C214.173 15.5227 214.281 16.2083 214.281 17.0227V17.5909H207.554V16.4318H212.918C212.918 15.9394 212.819 15.5 212.622 15.1136C212.429 14.7273 212.152 14.4223 211.793 14.1989C211.437 13.9754 211.016 13.8636 210.531 13.8636C209.997 13.8636 209.535 13.9962 209.145 14.2614C208.759 14.5227 208.461 14.8636 208.253 15.2841C208.045 15.7045 207.94 16.1553 207.94 16.6364V17.4091C207.94 18.0682 208.054 18.6269 208.281 19.0852C208.512 19.5398 208.832 19.8864 209.241 20.125C209.651 20.3598 210.126 20.4773 210.668 20.4773C211.02 20.4773 211.338 20.428 211.622 20.3295C211.91 20.2273 212.158 20.0758 212.366 19.875C212.575 19.6705 212.736 19.4167 212.849 19.1136L214.145 19.4773C214.009 19.9167 213.779 20.303 213.457 20.6364C213.135 20.9659 212.738 21.2235 212.264 21.4091C211.791 21.5909 211.259 21.6818 210.668 21.6818ZM219.866 21.6818C219.048 21.6818 218.344 21.4886 217.753 21.1023C217.162 20.7159 216.707 20.1837 216.389 19.5057C216.071 18.8277 215.912 18.053 215.912 17.1818C215.912 16.2955 216.075 15.5133 216.401 14.8352C216.73 14.1534 217.188 13.6212 217.776 13.2386C218.366 12.8523 219.056 12.6591 219.844 12.6591C220.457 12.6591 221.01 12.7727 221.503 13C221.995 13.2273 222.399 13.5455 222.713 13.9545C223.027 14.3636 223.223 14.8409 223.298 15.3864H221.957C221.855 14.9886 221.628 14.6364 221.276 14.3295C220.927 14.0189 220.457 13.8636 219.866 13.8636C219.344 13.8636 218.885 14 218.491 14.2727C218.101 14.5417 217.796 14.9223 217.577 15.4148C217.361 15.9034 217.253 16.4773 217.253 17.1364C217.253 17.8106 217.359 18.3977 217.571 18.8977C217.787 19.3977 218.09 19.786 218.48 20.0625C218.874 20.339 219.336 20.4773 219.866 20.4773C220.215 20.4773 220.531 20.4167 220.815 20.2955C221.099 20.1742 221.34 20 221.537 19.7727C221.734 19.5455 221.874 19.2727 221.957 18.9545H223.298C223.223 19.4697 223.035 19.9337 222.736 20.3466C222.44 20.7557 222.048 21.0814 221.56 21.3239C221.075 21.5625 220.51 21.6818 219.866 21.6818ZM228.804 21.6818C228.016 21.6818 227.325 21.4943 226.73 21.1193C226.139 20.7443 225.677 20.2197 225.344 19.5455C225.014 18.8712 224.849 18.0833 224.849 17.1818C224.849 16.2727 225.014 15.4792 225.344 14.8011C225.677 14.1231 226.139 13.5966 226.73 13.2216C227.325 12.8466 228.016 12.6591 228.804 12.6591C229.592 12.6591 230.281 12.8466 230.872 13.2216C231.467 13.5966 231.929 14.1231 232.259 14.8011C232.592 15.4792 232.759 16.2727 232.759 17.1818C232.759 18.0833 232.592 18.8712 232.259 19.5455C231.929 20.2197 231.467 20.7443 230.872 21.1193C230.281 21.4943 229.592 21.6818 228.804 21.6818ZM228.804 20.4773C229.402 20.4773 229.895 20.3239 230.281 20.017C230.668 19.7102 230.954 19.3068 231.139 18.8068C231.325 18.3068 231.418 17.7652 231.418 17.1818C231.418 16.5985 231.325 16.0549 231.139 15.5511C230.954 15.0473 230.668 14.6402 230.281 14.3295C229.895 14.0189 229.402 13.8636 228.804 13.8636C228.205 13.8636 227.713 14.0189 227.327 14.3295C226.94 14.6402 226.654 15.0473 226.469 15.5511C226.283 16.0549 226.19 16.5985 226.19 17.1818C226.19 17.7652 226.283 18.3068 226.469 18.8068C226.654 19.3068 226.94 19.7102 227.327 20.017C227.713 20.3239 228.205 20.4773 228.804 20.4773ZM234.805 21.5V12.7727H236.101V14.1364H236.214C236.396 13.6705 236.69 13.3087 237.095 13.0511C237.5 12.7898 237.987 12.6591 238.555 12.6591C239.131 12.6591 239.61 12.7898 239.993 13.0511C240.379 13.3087 240.68 13.6705 240.896 14.1364H240.987C241.211 13.6856 241.546 13.3277 241.993 13.0625C242.44 12.7936 242.976 12.6591 243.601 12.6591C244.381 12.6591 245.019 12.9034 245.516 13.392C246.012 13.8769 246.26 14.6326 246.26 15.6591V21.5H244.919V15.6591C244.919 15.0152 244.743 14.5549 244.391 14.2784C244.038 14.0019 243.624 13.8636 243.146 13.8636C242.533 13.8636 242.057 14.0492 241.72 14.4205C241.383 14.7879 241.214 15.2538 241.214 15.8182V21.5H239.851V15.5227C239.851 15.0265 239.69 14.6269 239.368 14.3239C239.046 14.017 238.631 13.8636 238.124 13.8636C237.775 13.8636 237.449 13.9564 237.146 14.142C236.847 14.3277 236.605 14.5852 236.419 14.9148C236.237 15.2405 236.146 15.6174 236.146 16.0455V21.5H234.805ZM248.712 21.5V12.7727H250.007V14.1364H250.121C250.303 13.6705 250.596 13.3087 251.001 13.0511C251.407 12.7898 251.893 12.6591 252.462 12.6591C253.037 12.6591 253.517 12.7898 253.899 13.0511C254.286 13.3087 254.587 13.6705 254.803 14.1364H254.893C255.117 13.6856 255.452 13.3277 255.899 13.0625C256.346 12.7936 256.882 12.6591 257.507 12.6591C258.287 12.6591 258.926 12.9034 259.422 13.392C259.918 13.8769 260.166 14.6326 260.166 15.6591V21.5H258.825V15.6591C258.825 15.0152 258.649 14.5549 258.297 14.2784C257.945 14.0019 257.53 13.8636 257.053 13.8636C256.439 13.8636 255.964 14.0492 255.626 14.4205C255.289 14.7879 255.121 15.2538 255.121 15.8182V21.5H253.757V15.5227C253.757 15.0265 253.596 14.6269 253.274 14.3239C252.952 14.017 252.537 13.8636 252.03 13.8636C251.681 13.8636 251.356 13.9564 251.053 14.142C250.753 14.3277 250.511 14.5852 250.325 14.9148C250.143 15.2405 250.053 15.6174 250.053 16.0455V21.5H248.712ZM266.277 21.6818C265.436 21.6818 264.711 21.4962 264.101 21.125C263.495 20.75 263.027 20.2273 262.697 19.5568C262.372 18.8826 262.209 18.0985 262.209 17.2045C262.209 16.3106 262.372 15.5227 262.697 14.8409C263.027 14.1553 263.485 13.6212 264.072 13.2386C264.663 12.8523 265.353 12.6591 266.141 12.6591C266.595 12.6591 267.044 12.7348 267.487 12.8864C267.93 13.0379 268.334 13.2841 268.697 13.625C269.061 13.9621 269.351 14.4091 269.567 14.9659C269.783 15.5227 269.891 16.2083 269.891 17.0227V17.5909H263.163V16.4318H268.527C268.527 15.9394 268.429 15.5 268.232 15.1136C268.038 14.7273 267.762 14.4223 267.402 14.1989C267.046 13.9754 266.625 13.8636 266.141 13.8636C265.607 13.8636 265.144 13.9962 264.754 14.2614C264.368 14.5227 264.071 14.8636 263.862 15.2841C263.654 15.7045 263.55 16.1553 263.55 16.6364V17.4091C263.55 18.0682 263.663 18.6269 263.891 19.0852C264.122 19.5398 264.442 19.8864 264.851 20.125C265.26 20.3598 265.735 20.4773 266.277 20.4773C266.629 20.4773 266.947 20.428 267.232 20.3295C267.519 20.2273 267.768 20.0758 267.976 19.875C268.184 19.6705 268.345 19.4167 268.459 19.1136L269.754 19.4773C269.618 19.9167 269.389 20.303 269.067 20.6364C268.745 20.9659 268.347 21.2235 267.874 21.4091C267.4 21.5909 266.868 21.6818 266.277 21.6818ZM273.271 16.25V21.5H271.93V12.7727H273.226V14.1364H273.339C273.544 13.6932 273.855 13.3371 274.271 13.0682C274.688 12.7955 275.226 12.6591 275.885 12.6591C276.476 12.6591 276.993 12.7803 277.436 13.0227C277.879 13.2614 278.224 13.625 278.47 14.1136C278.716 14.5985 278.839 15.2121 278.839 15.9545V21.5H277.499V16.0455C277.499 15.3598 277.321 14.8258 276.964 14.4432C276.608 14.0568 276.12 13.8636 275.499 13.8636C275.071 13.8636 274.688 13.9564 274.351 14.142C274.018 14.3277 273.754 14.5985 273.561 14.9545C273.368 15.3106 273.271 15.7424 273.271 16.25ZM284.585 21.6818C283.858 21.6818 283.216 21.4981 282.659 21.1307C282.102 20.7595 281.667 20.2367 281.352 19.5625C281.038 18.8845 280.881 18.0833 280.881 17.1591C280.881 16.2424 281.038 15.447 281.352 14.7727C281.667 14.0985 282.104 13.5777 282.665 13.2102C283.225 12.8428 283.873 12.6591 284.608 12.6591C285.176 12.6591 285.625 12.7538 285.955 12.9432C286.288 13.1288 286.542 13.3409 286.716 13.5795C286.894 13.8144 287.032 14.0076 287.131 14.1591H287.244V9.86364H288.585V21.5H287.29V20.1591H287.131C287.032 20.3182 286.892 20.5189 286.71 20.7614C286.528 21 286.269 21.214 285.932 21.4034C285.595 21.589 285.146 21.6818 284.585 21.6818ZM284.767 20.4773C285.305 20.4773 285.759 20.3371 286.131 20.0568C286.502 19.7727 286.784 19.3807 286.977 18.8807C287.17 18.3769 287.267 17.7955 287.267 17.1364C287.267 16.4848 287.172 15.9148 286.983 15.4261C286.794 14.9337 286.513 14.5511 286.142 14.2784C285.771 14.0019 285.313 13.8636 284.767 13.8636C284.199 13.8636 283.725 14.0095 283.347 14.3011C282.972 14.589 282.689 14.9811 282.5 15.4773C282.314 15.9697 282.222 16.5227 282.222 17.1364C282.222 17.7576 282.316 18.322 282.506 18.8295C282.699 19.3333 282.983 19.7348 283.358 20.0341C283.737 20.3295 284.206 20.4773 284.767 20.4773ZM293.795 21.7045C293.242 21.7045 292.741 21.6004 292.29 21.392C291.839 21.1799 291.481 20.875 291.216 20.4773C290.951 20.0758 290.818 19.5909 290.818 19.0227C290.818 18.5227 290.917 18.1174 291.114 17.8068C291.311 17.4924 291.574 17.2462 291.903 17.0682C292.233 16.8902 292.597 16.7576 292.994 16.6705C293.396 16.5795 293.799 16.5076 294.205 16.4545C294.735 16.3864 295.165 16.3352 295.494 16.3011C295.828 16.2633 296.07 16.2008 296.222 16.1136C296.377 16.0265 296.455 15.875 296.455 15.6591V15.6136C296.455 15.053 296.301 14.6174 295.994 14.3068C295.691 13.9962 295.231 13.8409 294.614 13.8409C293.973 13.8409 293.472 13.9811 293.108 14.2614C292.744 14.5417 292.489 14.8409 292.341 15.1591L291.068 14.7045C291.295 14.1742 291.598 13.7614 291.977 13.4659C292.36 13.1667 292.777 12.9583 293.227 12.8409C293.682 12.7197 294.129 12.6591 294.568 12.6591C294.848 12.6591 295.17 12.6932 295.534 12.7614C295.902 12.8258 296.256 12.9602 296.597 13.1648C296.941 13.3693 297.227 13.678 297.455 14.0909C297.682 14.5038 297.795 15.0568 297.795 15.75V21.5H296.455V20.3182H296.386C296.295 20.5076 296.144 20.7102 295.932 20.9261C295.72 21.142 295.438 21.3258 295.085 21.4773C294.733 21.6288 294.303 21.7045 293.795 21.7045ZM294 20.5C294.53 20.5 294.977 20.3958 295.341 20.1875C295.708 19.9792 295.985 19.7102 296.17 19.3807C296.36 19.0511 296.455 18.7045 296.455 18.3409V17.1136C296.398 17.1818 296.273 17.2443 296.08 17.3011C295.89 17.3542 295.67 17.4015 295.42 17.4432C295.174 17.4811 294.934 17.5152 294.699 17.5455C294.468 17.572 294.28 17.5947 294.136 17.6136C293.788 17.6591 293.462 17.733 293.159 17.8352C292.86 17.9337 292.617 18.0833 292.432 18.2841C292.25 18.4811 292.159 18.75 292.159 19.0909C292.159 19.5568 292.331 19.9091 292.676 20.1477C293.025 20.3826 293.466 20.5 294 20.5ZM304.038 12.7727V13.9091H299.516V12.7727H304.038ZM300.834 10.6818H302.175V19C302.175 19.3788 302.23 19.6629 302.339 19.8523C302.453 20.0379 302.597 20.1629 302.771 20.2273C302.949 20.2879 303.137 20.3182 303.334 20.3182C303.482 20.3182 303.603 20.3106 303.697 20.2955C303.792 20.2765 303.868 20.2614 303.925 20.25L304.197 21.4545C304.107 21.4886 303.98 21.5227 303.817 21.5568C303.654 21.5947 303.447 21.6136 303.197 21.6136C302.819 21.6136 302.447 21.5322 302.084 21.3693C301.724 21.2064 301.425 20.9583 301.186 20.625C300.951 20.2917 300.834 19.8712 300.834 19.3636V10.6818ZM306.055 21.5V12.7727H307.396V21.5H306.055ZM306.737 11.3182C306.476 11.3182 306.25 11.2292 306.061 11.0511C305.875 10.8731 305.783 10.6591 305.783 10.4091C305.783 10.1591 305.875 9.94508 306.061 9.76705C306.25 9.58902 306.476 9.5 306.737 9.5C306.999 9.5 307.222 9.58902 307.408 9.76705C307.597 9.94508 307.692 10.1591 307.692 10.4091C307.692 10.6591 307.597 10.8731 307.408 11.0511C307.222 11.2292 306.999 11.3182 306.737 11.3182ZM313.398 21.6818C312.61 21.6818 311.919 21.4943 311.324 21.1193C310.733 20.7443 310.271 20.2197 309.938 19.5455C309.608 18.8712 309.443 18.0833 309.443 17.1818C309.443 16.2727 309.608 15.4792 309.938 14.8011C310.271 14.1231 310.733 13.5966 311.324 13.2216C311.919 12.8466 312.61 12.6591 313.398 12.6591C314.186 12.6591 314.875 12.8466 315.466 13.2216C316.061 13.5966 316.523 14.1231 316.852 14.8011C317.186 15.4792 317.352 16.2727 317.352 17.1818C317.352 18.0833 317.186 18.8712 316.852 19.5455C316.523 20.2197 316.061 20.7443 315.466 21.1193C314.875 21.4943 314.186 21.6818 313.398 21.6818ZM313.398 20.4773C313.996 20.4773 314.489 20.3239 314.875 20.017C315.261 19.7102 315.547 19.3068 315.733 18.8068C315.919 18.3068 316.011 17.7652 316.011 17.1818C316.011 16.5985 315.919 16.0549 315.733 15.5511C315.547 15.0473 315.261 14.6402 314.875 14.3295C314.489 14.0189 313.996 13.8636 313.398 13.8636C312.799 13.8636 312.307 14.0189 311.92 14.3295C311.534 14.6402 311.248 15.0473 311.062 15.5511C310.877 16.0549 310.784 16.5985 310.784 17.1818C310.784 17.7652 310.877 18.3068 311.062 18.8068C311.248 19.3068 311.534 19.7102 311.92 20.017C312.307 20.3239 312.799 20.4773 313.398 20.4773ZM320.74 16.25V21.5H319.399V12.7727H320.695V14.1364H320.808C321.013 13.6932 321.323 13.3371 321.74 13.0682C322.157 12.7955 322.695 12.6591 323.354 12.6591C323.945 12.6591 324.462 12.7803 324.905 13.0227C325.348 13.2614 325.693 13.625 325.939 14.1136C326.185 14.5985 326.308 15.2121 326.308 15.9545V21.5H324.967V16.0455C324.967 15.3598 324.789 14.8258 324.433 14.4432C324.077 14.0568 323.589 13.8636 322.967 13.8636C322.539 13.8636 322.157 13.9564 321.82 14.142C321.486 14.3277 321.223 14.5985 321.03 14.9545C320.837 15.3106 320.74 15.7424 320.74 16.25Z" fill="black"/>
</svg>
